Hanif_Shallow_7_5_grf.mot
version=1
nRows=31
nColumns=19
inDegrees=yes
endheader
time	right_ground_force_vx	right_ground_force_vy	right_ground_force_vz	right_ground_force_px	right_ground_force_py	right_ground_force_pz	right_ground_torque_x	right_ground_torque_y	right_ground_torque_z	left_ground_force_vx	left_ground_force_vy	left_ground_force_vz	left_ground_force_px	left_ground_force_py	left_ground_force_pz	left_ground_torque_x	left_ground_torque_y	left_ground_torque_z
0.000000	-0.790975	287.559000	61.309700	0.183106	0.000000	-1.445670	-17.344100	-0.565534	-5.189230	4.394780	311.903000	-63.032200	0.187989	0.000000	-0.960949	18.038400	-3.563490	-3.230600
0.005000	-1.019820	286.877000	61.441500	0.182592	0.000000	-1.445890	-17.239200	-0.591757	-5.336710	4.185580	314.081000	-63.350100	0.187536	0.000000	-0.960467	18.014800	-3.633820	-3.389660
0.010000	-0.370098	285.884000	61.598700	0.181536	0.000000	-1.447190	-16.809700	-0.414505	-5.608230	4.408630	313.637000	-63.845100	0.186964	0.000000	-0.959650	17.731500	-3.635140	-3.568910
0.015000	-1.110470	285.385000	61.256800	0.180936	0.000000	-1.446850	-16.875800	-0.321115	-5.746050	4.099210	316.962000	-64.099500	0.185871	0.000000	-0.959010	17.719300	-3.735780	-3.952350
0.020000	-1.231380	284.925000	61.077800	0.180523	0.000000	-1.446950	-16.817400	-0.336023	-5.861060	4.065500	316.608000	-64.422200	0.186155	0.000000	-0.959190	17.756200	-3.778830	-3.842360
0.025000	-1.228490	284.008000	60.780900	0.179440	0.000000	-1.447960	-16.477300	-0.400299	-6.177030	3.431200	318.403000	-64.993100	0.185860	0.000000	-0.958363	17.598600	-3.819840	-3.948820
0.030000	-1.333180	280.927000	60.969600	0.178684	0.000000	-1.446920	-16.589900	-0.224225	-6.301770	3.618470	318.984000	-65.586400	0.184992	0.000000	-0.958283	17.603700	-3.892500	-4.230590
0.035000	-1.243440	282.495000	60.621600	0.178117	0.000000	-1.447970	-16.387400	-0.148345	-6.482880	3.013980	322.798000	-66.184500	0.184944	0.000000	-0.957618	17.604800	-3.928360	-4.292660
0.040000	-1.147770	283.953000	61.084900	0.177414	0.000000	-1.447720	-16.543300	-0.025014	-6.701150	3.727650	322.088000	-66.432300	0.183714	0.000000	-0.957156	17.410700	-4.083220	-4.668050
0.045000	0.360380	283.250000	61.359600	0.176249	0.000000	-1.448900	-16.175000	0.085261	-7.029290	3.942820	323.113000	-66.543800	0.183574	0.000000	-0.956418	17.225500	-4.133940	-4.724670
0.050000	1.565260	281.534000	61.554400	0.174701	0.000000	-1.447940	-16.353900	0.413690	-7.392400	4.003500	323.857000	-67.150300	0.183556	0.000000	-0.956403	17.259700	-4.180520	-4.731980
0.055000	3.093500	283.294000	61.649800	0.173253	0.000000	-1.448580	-16.280800	0.584795	-7.847510	3.664340	324.482000	-67.588900	0.182589	0.000000	-0.955253	16.922100	-4.283700	-5.042370
0.060000	4.108600	284.469000	62.118400	0.172252	0.000000	-1.449500	-16.090300	0.822355	-8.140850	3.913540	324.308000	-67.875600	0.182456	0.000000	-0.954942	16.809200	-4.391160	-5.062550
0.065000	4.869100	282.050000	61.965500	0.170382	0.000000	-1.449970	-15.824000	0.908908	-8.617210	3.757240	324.061000	-68.332300	0.182606	0.000000	-0.954228	16.565400	-4.468050	-4.985890
0.070000	5.749130	282.646000	61.151800	0.168886	0.000000	-1.451200	-15.508100	1.230520	-9.007730	4.192810	324.395000	-68.872300	0.181981	0.000000	-0.953788	16.435900	-4.506420	-5.197060
0.075000	5.889440	280.601000	61.363700	0.167423	0.000000	-1.451240	-15.386000	1.352060	-9.353160	3.802310	323.302000	-68.879900	0.182012	0.000000	-0.953761	16.373400	-4.629740	-5.134350
0.080000	6.016280	280.194000	61.399100	0.166700	0.000000	-1.451910	-15.175500	1.394810	-9.544060	2.868880	323.591000	-67.334400	0.182384	0.000000	-0.953184	16.210300	-4.565650	-5.027130
0.085000	6.026010	276.696000	60.424500	0.163965	0.000000	-1.451930	-14.981800	1.563690	-10.176100	2.579810	320.629000	-67.699000	0.182670	0.000000	-0.953596	16.195600	-4.630690	-4.854080
0.090000	5.971330	274.604000	60.214500	0.163114	0.000000	-1.452920	-14.597300	1.595230	-10.335900	2.262010	319.954000	-67.354000	0.182936	0.000000	-0.951386	15.457500	-4.621680	-4.751640
0.095000	6.176600	272.875000	60.460500	0.162115	0.000000	-1.453560	-14.331100	1.623340	-10.557600	1.136060	316.127000	-67.297800	0.182854	0.000000	-0.951844	15.429400	-4.445040	-4.731410
0.100000	6.000910	271.239000	60.036300	0.161007	0.000000	-1.453740	-14.197600	1.671660	-10.793900	-0.470903	315.884000	-67.601600	0.182958	0.000000	-0.950102	14.883500	-4.361870	-4.691780
0.105000	5.996470	270.750000	59.852500	0.159618	0.000000	-1.453950	-14.113700	1.787080	-11.141800	0.141612	312.734000	-67.017000	0.183331	0.000000	-0.950108	14.730800	-4.294250	-4.533590
0.110000	5.641130	269.132000	59.916900	0.159241	0.000000	-1.453290	-14.203100	1.943950	-11.146800	0.599463	309.214000	-66.482500	0.182712	0.000000	-0.950170	14.579500	-4.362460	-4.660850
0.115000	5.745320	270.093000	60.382300	0.158182	0.000000	-1.453600	-14.171000	1.968360	-11.486500	0.069962	307.740000	-65.126100	0.183502	0.000000	-0.949983	14.457800	-4.261890	-4.403130
0.120000	5.228310	271.373000	60.358200	0.157867	0.000000	-1.454080	-14.101500	2.193140	-11.572000	-0.588483	305.188000	-64.595200	0.183270	0.000000	-0.950687	14.559900	-4.315010	-4.415320
0.125000	5.244700	268.528000	60.327000	0.157059	0.000000	-1.454240	-13.910500	2.248090	-11.668700	-1.891540	302.057000	-63.510900	0.183576	0.000000	-0.949212	13.979200	-4.257590	-4.266770
0.130000	4.899200	270.687000	60.099200	0.157874	0.000000	-1.454780	-13.872800	2.320020	-11.505500	-1.329750	301.800000	-62.484200	0.183129	0.000000	-0.949004	13.898600	-4.310000	-4.404940
0.135000	4.427730	267.789000	59.432200	0.157070	0.000000	-1.453010	-14.197000	2.398200	-11.582200	-0.655453	301.209000	-62.218800	0.183622	0.000000	-0.949342	13.966200	-4.385590	-4.231410
0.140000	3.846930	266.083000	58.564900	0.156588	0.000000	-1.453770	-13.904200	2.368060	-11.633800	0.100495	300.524000	-61.253400	0.182909	0.000000	-0.949381	13.937500	-4.657000	-4.401470
0.145000	2.627830	265.866000	57.233200	0.156631	0.000000	-1.453860	-13.864900	2.270650	-11.605400	1.446140	302.488000	-60.759000	0.183280	0.000000	-0.949800	14.138400	-4.823980	-4.306430
0.150000	1.778130	264.529000	56.678900	0.156762	0.000000	-1.453940	-13.772700	2.283900	-11.493200	1.966860	304.084000	-59.936100	0.182397	0.000000	-0.950570	14.440100	-5.064520	-4.580970
